<?xml version="1.0" encoding="utf-8"?>
<!-- Generator: Adobe Illustrator 17.0.0, SVG Export Plug-In . SVG Version: 6.00 Build 0)  -->
<!DOCTYPE svg PUBLIC "-//W3C//DTD SVG 1.1//EN" "http://www.w3.org/Graphics/SVG/1.1/DTD/svg11.dtd">
<svg version="1.1" id="Layer_1" xmlns="http://www.w3.org/2000/svg" xmlns:xlink="http://www.w3.org/1999/xlink" x="0px" y="0px"
	 width="27px" height="27px" viewBox="0 0 27 27" enable-background="new 0 0 27 27" xml:space="preserve">
<g>
	<g>
		<g>
			<g>
				<circle fill="none" stroke="#FFFFFF" stroke-width="0.5" stroke-miterlimit="10" cx="13.5" cy="13.5" r="12.8"/>
			</g>
		</g>
	</g>
	<g>
		<g>
			<path fill="#FFFFFF" d="M20.939,11.752l-4.832-3.644c-0.129-0.097-0.306-0.097-0.435,0l-0.794,0.599l-0.794-0.599
				c-0.129-0.097-0.306-0.097-0.435,0l-0.774,0.584L12.1,8.108c-0.129-0.097-0.306-0.097-0.435,0l-4.832,3.644
				C6.743,11.82,6.69,11.927,6.69,12.04v6.135c0,0.199,0.162,0.361,0.361,0.361h13.671c0.199,0,0.361-0.162,0.361-0.361V12.04
				C21.083,11.927,21.03,11.82,20.939,11.752L20.939,11.752z M20.361,17.814H19.06V12.04c0-0.113-0.053-0.22-0.143-0.288
				L15.478,9.16l0.412-0.311l4.471,3.372V17.814z M17.076,17.814V12.04c0-0.113-0.053-0.22-0.144-0.288l-3.458-2.607l0.392-0.296
				l4.471,3.372v5.594H17.076z M12.474,17.814h-1.182v-2.617h1.182V17.814z M13.196,17.814v-2.978c0-0.199-0.161-0.361-0.361-0.361
				h-1.904c-0.199,0-0.361,0.162-0.361,0.361v2.978H7.412V12.22l4.471-3.372l4.471,3.372v5.594H13.196z M13.196,17.814"/>
		</g>
	</g>
</g>
</svg>
