<?xml version="1.0" encoding="utf-8"?>
<!-- Generator: Adobe Illustrator 17.0.0, SVG Export Plug-In . SVG Version: 6.00 Build 0)  -->
<!DOCTYPE svg PUBLIC "-//W3C//DTD SVG 1.1//EN" "http://www.w3.org/Graphics/SVG/1.1/DTD/svg11.dtd">
<svg version="1.1" id="Layer_1" xmlns="http://www.w3.org/2000/svg" xmlns:xlink="http://www.w3.org/1999/xlink" x="0px" y="0px"
	 width="27px" height="27px" viewBox="0 0 27 27" enable-background="new 0 0 27 27" xml:space="preserve">
<g>
	<g>
		<g>
			<g>
				<circle fill="none" stroke="#FFFFFF" stroke-width="0.5" stroke-miterlimit="10" cx="13.5" cy="13.5" r="12.8"/>
			</g>
		</g>
	</g>
	<g>
		<rect x="11.554" y="10.49" fill="#FFFFFF" width="0.432" height="0.432"/>
		<rect x="11.554" y="11.355" fill="#FFFFFF" width="0.432" height="0.432"/>
		<rect x="11.554" y="12.22" fill="#FFFFFF" width="0.432" height="0.432"/>
		<rect x="11.554" y="13.085" fill="#FFFFFF" width="0.432" height="0.432"/>
		<rect x="12.419" y="10.49" fill="#FFFFFF" width="0.432" height="0.432"/>
		<rect x="12.419" y="11.355" fill="#FFFFFF" width="0.432" height="0.432"/>
		<rect x="12.419" y="12.22" fill="#FFFFFF" width="0.432" height="0.432"/>
		<rect x="12.419" y="13.085" fill="#FFFFFF" width="0.432" height="0.432"/>
		<rect x="13.284" y="10.49" fill="#FFFFFF" width="0.432" height="0.432"/>
		<rect x="13.284" y="11.355" fill="#FFFFFF" width="0.432" height="0.432"/>
		<rect x="13.284" y="12.22" fill="#FFFFFF" width="0.432" height="0.432"/>
		<rect x="13.284" y="13.085" fill="#FFFFFF" width="0.432" height="0.432"/>
		<rect x="14.149" y="10.49" fill="#FFFFFF" width="0.432" height="0.432"/>
		<rect x="12.419" y="9.626" fill="#FFFFFF" width="0.432" height="0.432"/>
		<rect x="13.284" y="9.626" fill="#FFFFFF" width="0.432" height="0.432"/>
		<rect x="14.149" y="9.626" fill="#FFFFFF" width="0.432" height="0.432"/>
		<rect x="14.149" y="11.355" fill="#FFFFFF" width="0.432" height="0.432"/>
		<rect x="14.149" y="12.22" fill="#FFFFFF" width="0.432" height="0.432"/>
		<rect x="14.149" y="13.085" fill="#FFFFFF" width="0.432" height="0.432"/>
		<rect x="15.013" y="10.49" fill="#FFFFFF" width="0.432" height="0.432"/>
		<rect x="15.013" y="11.355" fill="#FFFFFF" width="0.432" height="0.432"/>
		<rect x="15.013" y="12.22" fill="#FFFFFF" width="0.432" height="0.432"/>
		<rect x="15.013" y="13.085" fill="#FFFFFF" width="0.432" height="0.432"/>
		<path fill="#FFFFFF" d="M19.769,9.409h-3.243V6.383c0-0.119-0.097-0.216-0.216-0.216c0,0,0,0,0,0H10.69
			c-0.119,0-0.216,0.097-0.216,0.216c0,0,0,0,0,0v3.027H7.231c-0.119,0-0.216,0.097-0.216,0.216c0,0,0,0,0,0v7.783
			c0,0.119,0.097,0.216,0.216,0.216c0,0,0,0,0,0h0.452c-0.013,0.071-0.019,0.144-0.02,0.216v1.081c0,0.119,0.097,0.216,0.216,0.216
			c0,0,0,0,0,0h11.242c0.119,0,0.216-0.097,0.216-0.216c0,0,0,0,0,0v-1.081c0-0.072-0.007-0.145-0.02-0.216h0.452
			c0.119,0,0.216-0.097,0.216-0.216c0,0,0,0,0,0V9.626C19.986,9.506,19.889,9.41,19.769,9.409
			C19.77,9.409,19.769,9.409,19.769,9.409z M16.31,15.463c0,0.239-0.194,0.432-0.432,0.432s-0.432-0.194-0.432-0.432
			c0-0.239,0.194-0.432,0.432-0.432C16.117,15.031,16.31,15.224,16.31,15.463z M11.122,15.03c0.239,0,0.432,0.194,0.432,0.432
			c0,0.239-0.194,0.432-0.432,0.432s-0.432-0.194-0.432-0.432C10.69,15.224,10.883,15.031,11.122,15.03z M9.825,18.705H8.095v-0.865
			c0-0.478,0.387-0.865,0.865-0.865s0.865,0.387,0.865,0.865V18.705z M8.528,16.111c0-0.239,0.194-0.432,0.432-0.432
			c0.239,0,0.432,0.194,0.432,0.432c0,0.239-0.194,0.432-0.432,0.432C8.721,16.543,8.528,16.35,8.528,16.111z M9.858,16.906
			c-0.082-0.079-0.173-0.146-0.272-0.201c0.33-0.345,0.317-0.893-0.028-1.223c-0.345-0.33-0.893-0.317-1.223,0.028
			c-0.319,0.334-0.319,0.86,0,1.194c-0.206,0.115-0.378,0.283-0.496,0.487H7.447v-7.35h3.027v5.055
			c-0.297,0.333-0.287,0.839,0.023,1.16C10.172,16.236,9.94,16.545,9.858,16.906z M11.987,18.705h-1.729v-1.513
			c0-0.478,0.387-0.865,0.865-0.865s0.865,0.387,0.865,0.865V18.705z M14.581,18.705h-2.162v-1.513c0-0.597,0.484-1.081,1.081-1.081
			c0.597,0,1.081,0.484,1.081,1.081V18.705z M12.851,15.03c0-0.358,0.29-0.649,0.649-0.649s0.649,0.29,0.649,0.649
			c0,0.358-0.29,0.649-0.649,0.649C13.142,15.678,12.852,15.388,12.851,15.03z M14.817,16.449c-0.145-0.255-0.36-0.463-0.62-0.599
			c0.457-0.385,0.515-1.067,0.13-1.523c-0.385-0.457-1.067-0.515-1.523-0.13c-0.457,0.385-0.515,1.067-0.13,1.523
			c0.04,0.047,0.083,0.091,0.13,0.13c-0.26,0.136-0.476,0.344-0.62,0.599c-0.114-0.162-0.263-0.296-0.436-0.392
			c0.331-0.339,0.325-0.883-0.014-1.214c-0.218-0.213-0.534-0.295-0.828-0.214v-8.03h5.188v8.03c-0.07-0.019-0.143-0.03-0.216-0.031
			c-0.476-0.001-0.863,0.384-0.865,0.86c-0.001,0.223,0.085,0.437,0.239,0.598C15.079,16.153,14.93,16.287,14.817,16.449z
			 M16.743,17.841v0.865h-1.729v-1.513c0-0.478,0.387-0.865,0.865-0.865s0.865,0.387,0.865,0.865V17.841z M18.905,18.705h-1.729
			v-0.865c0-0.478,0.387-0.865,0.865-0.865c0.478,0,0.865,0.387,0.865,0.865V18.705z M17.608,16.111
			c0-0.239,0.194-0.432,0.432-0.432s0.432,0.194,0.432,0.432c0,0.239-0.194,0.432-0.432,0.432
			C17.801,16.543,17.608,16.35,17.608,16.111z M19.553,17.192h-0.392c-0.118-0.204-0.29-0.373-0.496-0.487
			c0.33-0.345,0.317-0.893-0.028-1.223s-0.893-0.317-1.223,0.028c-0.319,0.334-0.319,0.86,0,1.194
			c-0.099,0.055-0.19,0.123-0.272,0.201c-0.082-0.361-0.315-0.67-0.639-0.85c0.31-0.321,0.32-0.827,0.023-1.16V9.842h3.027V17.192z"
			/>
		<rect x="17.175" y="11.139" fill="#FFFFFF" width="0.432" height="3.459"/>
		<rect x="18.472" y="11.139" fill="#FFFFFF" width="0.432" height="3.459"/>
		<rect x="8.095" y="11.139" fill="#FFFFFF" width="0.432" height="3.459"/>
		<rect x="9.393" y="11.139" fill="#FFFFFF" width="0.432" height="3.459"/>
		<path fill="#FFFFFF" d="M12.203,9.193h2.594c0.119,0,0.216-0.097,0.216-0.216c0,0,0,0,0,0V7.248c0-0.119-0.097-0.216-0.216-0.216
			c0,0,0,0,0,0h-2.594c-0.119,0-0.216,0.097-0.216,0.216c0,0,0,0,0,0v1.729C11.987,9.096,12.083,9.193,12.203,9.193
			C12.203,9.193,12.203,9.193,12.203,9.193z M12.419,7.464h2.162v1.297h-2.162V7.464z"/>
	</g>
</g>
</svg>
