<?xml version="1.0" encoding="utf-8"?>
<!-- Generator: Adobe Illustrator 17.0.0, SVG Export Plug-In . SVG Version: 6.00 Build 0)  -->
<!DOCTYPE svg PUBLIC "-//W3C//DTD SVG 1.1//EN" "http://www.w3.org/Graphics/SVG/1.1/DTD/svg11.dtd">
<svg version="1.1" id="Layer_1" xmlns="http://www.w3.org/2000/svg" xmlns:xlink="http://www.w3.org/1999/xlink" x="0px" y="0px"
	 width="27px" height="27px" viewBox="0 0 27 27" enable-background="new 0 0 27 27" xml:space="preserve">
<g>
	<g>
		<g>
			<g>
				<circle fill="none" stroke="#FFFFFF" stroke-width="0.5" stroke-miterlimit="10" cx="13.5" cy="13.5" r="12.8"/>
			</g>
		</g>
	</g>
	<g>
		<g>
			<path fill="#FFFFFF" d="M19.158,18.474H8.156c-0.132,0-0.239-0.107-0.239-0.239v-0.239h11.48v0.239
				C19.397,18.367,19.29,18.474,19.158,18.474z"/>
			<path fill="#FFFFFF" d="M12.461,18.474H8.634c-0.132,0-0.239-0.107-0.239-0.239v-6.697c0-0.132,0.107-0.239,0.239-0.239h3.827
				c0.132,0,0.239,0.107,0.239,0.239v6.697C12.7,18.367,12.593,18.474,12.461,18.474z M8.873,17.996h3.348v-6.219H8.873V17.996z"/>
			<path fill="#FFFFFF" d="M18.679,18.474h-3.827c-0.132,0-0.239-0.107-0.239-0.239V8.668c0-0.132,0.107-0.239,0.239-0.239h3.827
				c0.132,0,0.239,0.107,0.239,0.239v9.567C18.918,18.367,18.811,18.474,18.679,18.474z M15.092,17.996h3.348V8.907h-3.348V17.996z"
				/>
			<path fill="#FFFFFF" d="M10.786,10.821h-0.478V7.233c0-0.132,0.107-0.239,0.239-0.239h6.458c0.132,0,0.239,0.107,0.239,0.239
				v0.718h-0.478V7.472h-5.979V10.821z"/>
			<path fill="#FFFFFF" d="M9.351,12.256H9.83v4.305H9.351V12.256z"/>
			<path fill="#FFFFFF" d="M10.308,12.256h0.478v4.305h-0.478V12.256z"/>
			<path fill="#FFFFFF" d="M11.265,12.256h0.478v4.305h-0.478V12.256z"/>
			<path fill="#FFFFFF" d="M14.852,9.625h2.631v0.478h-2.631V9.625z"/>
			<path fill="#FFFFFF" d="M14.852,10.821h2.631v0.478h-2.631V10.821z"/>
			<path fill="#FFFFFF" d="M14.852,12.017h2.631v0.478h-2.631V12.017z"/>
			<path fill="#FFFFFF" d="M14.852,13.212h2.631v0.478h-2.631V13.212z"/>
			<path fill="#FFFFFF" d="M14.852,14.408h2.631v0.478h-2.631V14.408z"/>
			<path fill="#FFFFFF" d="M14.852,15.604h2.631v0.478h-2.631V15.604z"/>
			<path fill="#FFFFFF" d="M11.504,8.19h0.478v0.718h-0.478V8.19z"/>
			<path fill="#FFFFFF" d="M11.504,9.625h0.478v0.718h-0.478V9.625z"/>
			<path fill="#FFFFFF" d="M12.461,9.625h0.478v0.718h-0.478V9.625z"/>
			<path fill="#FFFFFF" d="M12.461,8.19h0.478v0.718h-0.478V8.19z"/>
			<path fill="#FFFFFF" d="M13.417,8.19h0.478v0.718h-0.478V8.19z"/>
			<path fill="#FFFFFF" d="M13.417,9.625h0.478v0.718h-0.478V9.625z"/>
			<path fill="#FFFFFF" d="M13.417,11.06h0.478v0.718h-0.478V11.06z"/>
			<path fill="#FFFFFF" d="M13.417,12.495h0.478v0.718h-0.478V12.495z"/>
			<path fill="#FFFFFF" d="M13.417,13.93h0.478v0.718h-0.478V13.93z"/>
			<path fill="#FFFFFF" d="M13.417,15.365h0.478v0.718h-0.478V15.365z"/>
			<path fill="#FFFFFF" d="M17.244,18.235h-0.478v-0.957h-0.718v0.957H15.57v-1.196c0-0.132,0.107-0.239,0.239-0.239h1.196
				c0.132,0,0.239,0.107,0.239,0.239V18.235z"/>
			<path fill="#FFFFFF" d="M11.743,18.235h-0.478v-0.718H9.83v0.718H9.351v-0.957c0-0.132,0.107-0.239,0.239-0.239h1.913
				c0.132,0,0.239,0.107,0.239,0.239V18.235z"/>
		</g>
	</g>
</g>
</svg>
