<?xml version="1.0" encoding="utf-8"?>
<!-- Generator: Adobe Illustrator 17.0.0, SVG Export Plug-In . SVG Version: 6.00 Build 0)  -->
<!DOCTYPE svg PUBLIC "-//W3C//DTD SVG 1.1//EN" "http://www.w3.org/Graphics/SVG/1.1/DTD/svg11.dtd">
<svg version="1.1" id="Layer_1" xmlns="http://www.w3.org/2000/svg" xmlns:xlink="http://www.w3.org/1999/xlink" x="0px" y="0px"
	 width="27px" height="27px" viewBox="0 0 27 27" enable-background="new 0 0 27 27" xml:space="preserve">
<g>
	<g>
		<g>
			<g>
				<circle fill="none" stroke="#FFFFFF" stroke-width="0.5" stroke-miterlimit="10" cx="13.5" cy="13.5" r="12.8"/>
			</g>
		</g>
	</g>
	<g>
		<path fill="none" stroke="#FFFFFF" stroke-width="0.5" stroke-miterlimit="10" d="M19.248,13.117l-1.009,1.564l-0.669-0.269
			l-2.329,4.249h2.737l1.199-1.59h1.03l1.101,1.59h0.928l-2.123-5.31L19.248,13.117z M19.248,13.117"/>
		<path fill="none" stroke="#FFFFFF" stroke-width="0.5" stroke-miterlimit="10" d="M20.068,17.336h-0.76l-0.999,1.325h2.676
			L20.068,17.336z M20.068,17.336"/>
		<path fill="none" stroke="#FFFFFF" stroke-width="0.5" stroke-miterlimit="10" d="M8.299,16.117l-0.787,2.544h1.092l0.874-2.533
			l0.25-1.971h0.833l0.749,2.043l-0.458,2.461h1.061l0.521-2.788l-0.521-1.47l-0.189-0.664l2.87,1.625l-0.54,0.935l1.251,0.721
			l1.322-2.297l-1.25-0.72l-0.52,0.902l-3.341-1.893l-0.181-0.633l0.329-1.328l0.141,1.214l0.226,0.589l0.896,0.524l-0.372-1.32
			L12.27,9.525l-0.928-0.039l-0.163-0.449c0.622-0.127,1.089-0.662,1.125-1.312l-2.792-0.37C9.491,7.45,9.479,7.549,9.479,7.65
			c0,0.49,0.25,0.922,0.628,1.176l-0.025-0.003l-0.559,0.47l-0.715-0.06l-1.572,1.374v2.091l1.249,0.309L8.299,16.117z M8.03,11.939
			v-0.625L8.56,10.83v1.228L8.03,11.939z M8.03,11.939"/>
		<path fill="none" stroke="#FFFFFF" stroke-width="0.5" stroke-miterlimit="10" d="M12.291,7.456l0.424,0.056
			c0.057-1.26-0.492-2.086-1.483-2.218c-0.081-0.011-0.163-0.016-0.242-0.016c-0.878,0-1.518,0.643-1.769,1.77l0.37,0.049
			L12.291,7.456z M12.291,7.456"/>
	</g>
</g>
</svg>
