<?xml version="1.0" encoding="utf-8"?>
<!-- Generator: Adobe Illustrator 17.0.0, SVG Export Plug-In . SVG Version: 6.00 Build 0)  -->
<!DOCTYPE svg PUBLIC "-//W3C//DTD SVG 1.1//EN" "http://www.w3.org/Graphics/SVG/1.1/DTD/svg11.dtd">
<svg version="1.1" id="Layer_1" xmlns="http://www.w3.org/2000/svg" xmlns:xlink="http://www.w3.org/1999/xlink" x="0px" y="0px"
	 width="27px" height="27px" viewBox="0 0 27 27" enable-background="new 0 0 27 27" xml:space="preserve">
<g>
	<g>
		<g>
			<g>
				<circle fill="none" stroke="#FFFFFF" stroke-width="0.5" stroke-miterlimit="10" cx="13.5" cy="13.5" r="12.8"/>
			</g>
		</g>
	</g>
	<g>
		<rect x="16.333" y="18.673" fill="none" width="1.5" height="2"/>
		<polygon fill="none" points="12.333,13.173 12.833,13.173 12.833,13.673 13.583,13.673 13.583,12.673 11.583,12.673 
			11.583,13.673 12.333,13.673 		"/>
		<rect x="16.083" y="7.673" fill="none" width="2" height="0.5"/>
		<polygon fill="none" points="16.083,9.173 16.583,9.173 16.583,10.173 17.583,10.173 17.583,9.173 18.083,9.173 18.083,10.173 
			18.583,10.173 18.583,8.673 15.583,8.673 15.583,10.173 16.083,10.173 		"/>
		<polygon fill="none" points="10.583,20.673 11.083,20.673 11.083,14.673 11.583,14.673 11.583,20.673 12.333,20.673 
			12.333,14.673 12.833,14.673 12.833,20.673 13.583,20.673 13.583,14.673 14.083,14.673 14.083,20.673 14.583,20.673 
			14.583,14.173 10.583,14.173 		"/>
		<rect x="7.083" y="15.923" fill="none" width="0.5" height="3"/>
		<rect x="7.083" y="14.923" fill="none" width="0.5" height="0.5"/>
		<rect x="8.583" y="14.173" fill="none" width="0.5" height="3"/>
		<rect x="8.583" y="13.173" fill="none" width="0.5" height="0.5"/>
		<rect x="12.083" y="11.673" fill="none" width="1" height="0.5"/>
		<path fill="none" d="M15.083,20.673h0.75v-2.5h2.5v2.5h0.75v-10h-4V20.673z M18.083,11.173h0.5v0.5h-0.5V11.173z M18.083,12.673
			h0.5v0.5h-0.5V12.673z M18.083,14.173h0.5v0.5h-0.5V14.173z M18.083,15.673h0.5v0.5h-0.5V15.673z M18.083,17.173h0.5v0.5h-0.5
			V17.173z M16.833,11.173h0.5v0.5h-0.5V11.173z M16.833,12.673h0.5v0.5h-0.5V12.673z M16.833,14.173h0.5v0.5h-0.5V14.173z
			 M16.833,15.673h0.5v0.5h-0.5V15.673z M16.833,17.173h0.5v0.5h-0.5V17.173z M15.583,11.173h0.5v0.5h-0.5V11.173z M15.583,12.673
			h0.5v0.5h-0.5V12.673z M15.583,14.173h0.5v0.5h-0.5V14.173z M15.583,15.673h0.5v0.5h-0.5V15.673z M15.583,17.173h0.5v0.5h-0.5
			V17.173z"/>
		<path fill="#FFFFFF" d="M19.583,20.673v-10.5h-0.5v-2h-0.5v-1h-1.25v-1.5h-0.5v1.5h-1.25v1h-0.5v2h-0.5v3.5h-0.5v-1.5h-0.5v-1
			h-0.75v-1.25h-0.5v1.25h-0.75v1h-0.5v1.5h-1v7h-0.5v0.5h10.5v-0.5H19.583z M12.083,11.673h1v0.5h-1V11.673z M11.583,12.673h2v1
			h-0.75v-0.5h-0.5v0.5h-0.75V12.673z M14.583,20.673h-0.5v-6h-0.5v6h-0.75v-6h-0.5v6h-0.75v-6h-0.5v6h-0.5v-6.5h4V20.673z
			 M16.083,7.673h2v0.5h-2V7.673z M15.583,8.673h3v1.5h-0.5v-1h-0.5v1h-1v-1h-0.5v1h-0.5V8.673z M17.833,20.673h-1.5v-2h1.5V20.673z
			 M19.083,20.673h-0.75v-2.5h-2.5v2.5h-0.75v-10h4V20.673z"/>
		<rect x="15.583" y="11.173" fill="#FFFFFF" width="0.5" height="0.5"/>
		<rect x="16.833" y="11.173" fill="#FFFFFF" width="0.5" height="0.5"/>
		<rect x="18.083" y="11.173" fill="#FFFFFF" width="0.5" height="0.5"/>
		<rect x="15.583" y="12.673" fill="#FFFFFF" width="0.5" height="0.5"/>
		<rect x="16.833" y="12.673" fill="#FFFFFF" width="0.5" height="0.5"/>
		<rect x="18.083" y="12.673" fill="#FFFFFF" width="0.5" height="0.5"/>
		<rect x="15.583" y="14.173" fill="#FFFFFF" width="0.5" height="0.5"/>
		<rect x="16.833" y="14.173" fill="#FFFFFF" width="0.5" height="0.5"/>
		<rect x="18.083" y="14.173" fill="#FFFFFF" width="0.5" height="0.5"/>
		<rect x="15.583" y="15.673" fill="#FFFFFF" width="0.5" height="0.5"/>
		<rect x="16.833" y="15.673" fill="#FFFFFF" width="0.5" height="0.5"/>
		<rect x="18.083" y="15.673" fill="#FFFFFF" width="0.5" height="0.5"/>
		<rect x="15.583" y="17.173" fill="#FFFFFF" width="0.5" height="0.5"/>
		<rect x="16.833" y="17.173" fill="#FFFFFF" width="0.5" height="0.5"/>
		<rect x="18.083" y="17.173" fill="#FFFFFF" width="0.5" height="0.5"/>
		<rect x="5.583" y="13.173" fill="#FFFFFF" width="0.5" height="0.5"/>
		<rect x="5.583" y="14.173" fill="#FFFFFF" width="0.5" height="3"/>
		<rect x="7.083" y="14.923" fill="#FFFFFF" width="0.5" height="0.5"/>
		<rect x="7.083" y="15.923" fill="#FFFFFF" width="0.5" height="3"/>
		<rect x="8.583" y="13.173" fill="#FFFFFF" width="0.5" height="0.5"/>
		<rect x="8.583" y="14.173" fill="#FFFFFF" width="0.5" height="3"/>
		<rect x="20.583" y="20.673" fill="#FFFFFF" width="0.5" height="0.5"/>
		<rect x="8.583" y="20.673" fill="#FFFFFF" width="0.5" height="0.5"/>
	</g>
</g>
</svg>
