<?xml version="1.0" encoding="utf-8"?>
<!-- Generator: Adobe Illustrator 17.0.0, SVG Export Plug-In . SVG Version: 6.00 Build 0)  -->
<!DOCTYPE svg PUBLIC "-//W3C//DTD SVG 1.1//EN" "http://www.w3.org/Graphics/SVG/1.1/DTD/svg11.dtd">
<svg version="1.1" id="Layer_1" xmlns="http://www.w3.org/2000/svg" xmlns:xlink="http://www.w3.org/1999/xlink" x="0px" y="0px"
	 width="27px" height="27px" viewBox="0 0 27 27" enable-background="new 0 0 27 27" xml:space="preserve">
<g>
	<g>
		<circle fill="none" stroke="#FFFFFF" stroke-width="0.5" stroke-miterlimit="10" cx="13.5" cy="13.5" r="12.8"/>
	</g>
	<g>
		<g>
			<path fill="#FFFFFF" d="M17.029,18.648h-6.354c-0.125,0-0.227,0.102-0.227,0.227v0.454c0,0.125,0.102,0.227,0.227,0.227
				c0.125,0,0.227-0.102,0.227-0.227v-0.227h6.127c0.125,0,0.227-0.102,0.227-0.227C17.256,18.749,17.154,18.648,17.029,18.648
				L17.029,18.648z M17.029,18.648"/>
			<path fill="#FFFFFF" d="M12.263,11.613c0,0.125,0.102,0.227,0.227,0.227h0.908c0.125,0,0.227-0.102,0.227-0.227v-1.362
				c0-0.125-0.102-0.227-0.227-0.227H12.49c-0.125,0-0.227,0.102-0.227,0.227V11.613z M12.717,10.478h0.454v0.908h-0.454V10.478z
				 M12.717,10.478"/>
			<path fill="#FFFFFF" d="M10.221,8.663H7.498c-0.125,0-0.227,0.102-0.227,0.227v4.539c0,0.125,0.102,0.227,0.227,0.227
				c0.125,0,0.227-0.102,0.227-0.227V9.116h2.496c0.125,0,0.227-0.102,0.227-0.227C10.448,8.764,10.346,8.663,10.221,8.663
				L10.221,8.663z M10.221,8.663"/>
			<path fill="#FFFFFF" d="M18.164,17.059c0,0.125,0.102,0.227,0.227,0.227h0.908c0.125,0,0.227-0.102,0.227-0.227v-1.362
				c0-0.125-0.102-0.227-0.227-0.227h-0.908c-0.125,0-0.227,0.102-0.227,0.227V17.059z M18.617,15.925h0.454v0.908h-0.454V15.925z
				 M18.617,15.925"/>
			<path fill="#FFFFFF" d="M8.405,14.109c-1.122,0-1.135,2.921-1.135,2.95c0,0.548,0.391,1.006,0.908,1.112v1.158
				c0,0.125,0.102,0.227,0.227,0.227c0.125,0,0.227-0.102,0.227-0.227v-1.158c0.517-0.105,0.908-0.564,0.908-1.112
				C9.54,17.03,9.527,14.109,8.405,14.109L8.405,14.109z M8.405,17.74c-0.375,0-0.681-0.306-0.681-0.681
				c0-1.131,0.304-2.496,0.681-2.496c0.377,0,0.681,1.366,0.681,2.496C9.086,17.435,8.781,17.74,8.405,17.74L8.405,17.74z
				 M8.405,17.74"/>
			<path fill="#FFFFFF" d="M9.767,12.747H8.859c-0.125,0-0.227,0.102-0.227,0.227v0.454c0,0.125,0.102,0.227,0.227,0.227
				c0.125,0,0.227-0.102,0.227-0.227v-0.227H9.54v1.135c0,0.125,0.102,0.227,0.227,0.227c0.125,0,0.227-0.102,0.227-0.227v-1.362
				C9.994,12.849,9.892,12.747,9.767,12.747L9.767,12.747z M9.767,12.747"/>
			<path fill="#FFFFFF" d="M18.391,11.84h0.908c0.125,0,0.227-0.102,0.227-0.227v-1.362c0-0.125-0.102-0.227-0.227-0.227h-0.908
				c-0.125,0-0.227,0.102-0.227,0.227v1.362C18.164,11.738,18.265,11.84,18.391,11.84L18.391,11.84z M18.617,10.478h0.454v0.908
				h-0.454V10.478z M18.617,10.478"/>
			<path fill="#FFFFFF" d="M9.767,10.024H8.859c-0.125,0-0.227,0.102-0.227,0.227v1.362c0,0.125,0.102,0.227,0.227,0.227h0.908
				c0.125,0,0.227-0.102,0.227-0.227v-1.362C9.994,10.126,9.892,10.024,9.767,10.024L9.767,10.024z M9.54,11.386H9.086v-0.908H9.54
				V11.386z M9.54,11.386"/>
			<path fill="#FFFFFF" d="M14.533,11.613c0,0.125,0.102,0.227,0.227,0.227h0.908c0.125,0,0.227-0.102,0.227-0.227v-1.362
				c0-0.125-0.102-0.227-0.227-0.227H14.76c-0.125,0-0.227,0.102-0.227,0.227V11.613z M14.986,10.478h0.454v0.908h-0.454V10.478z
				 M14.986,10.478"/>
			<path fill="#FFFFFF" d="M20.66,8.663h-2.723c-0.125,0-0.227,0.102-0.227,0.227c0,0.125,0.102,0.227,0.227,0.227h2.496v9.119
				c-0.071-0.025-0.147-0.042-0.227-0.042c-0.039,0-0.078,0.003-0.117,0.01c-0.157-0.282-0.455-0.464-0.791-0.464
				c-0.336,0-0.634,0.182-0.791,0.464c-0.038-0.007-0.077-0.01-0.117-0.01c-0.375,0-0.681,0.305-0.681,0.681
				c0,0.375,0.306,0.681,0.681,0.681h1.815c0.375,0,0.681-0.306,0.681-0.681V8.889C20.887,8.764,20.785,8.663,20.66,8.663
				L20.66,8.663z M20.206,19.102h-1.815c-0.125,0-0.227-0.102-0.227-0.227c0-0.125,0.102-0.227,0.227-0.227
				c0.043,0,0.085,0.012,0.123,0.037c0.062,0.04,0.14,0.047,0.208,0.019c0.069-0.028,0.119-0.087,0.136-0.159
				c0.048-0.207,0.229-0.351,0.441-0.351c0.212,0,0.393,0.145,0.441,0.351c0.017,0.072,0.067,0.131,0.136,0.159
				c0.068,0.028,0.146,0.021,0.208-0.019c0.148-0.095,0.35,0.021,0.35,0.19C20.433,19,20.331,19.102,20.206,19.102L20.206,19.102z
				 M20.206,19.102"/>
			<path fill="#FFFFFF" d="M14.76,9.116h0.908c0.125,0,0.227-0.102,0.227-0.227V7.528c0-0.125-0.102-0.227-0.227-0.227H14.76
				c-0.125,0-0.227,0.102-0.227,0.227v1.362C14.533,9.015,14.634,9.116,14.76,9.116L14.76,9.116z M14.986,7.755h0.454v0.908h-0.454
				V7.755z M14.986,7.755"/>
			<path fill="#FFFFFF" d="M14.533,14.336c0,0.125,0.102,0.227,0.227,0.227h0.908c0.125,0,0.227-0.102,0.227-0.227v-1.362
				c0-0.125-0.102-0.227-0.227-0.227H14.76c-0.125,0-0.227,0.102-0.227,0.227V14.336z M14.986,13.201h0.454v0.908h-0.454V13.201z
				 M14.986,13.201"/>
			<path fill="#FFFFFF" d="M12.49,9.116h0.908c0.125,0,0.227-0.102,0.227-0.227V7.528c0-0.125-0.102-0.227-0.227-0.227H12.49
				c-0.125,0-0.227,0.102-0.227,0.227v1.362C12.263,9.015,12.365,9.116,12.49,9.116L12.49,9.116z M12.717,7.755h0.454v0.908h-0.454
				V7.755z M12.717,7.755"/>
			<path fill="#FFFFFF" d="M13.918,16.898c-0.041,0.043-0.066,0.102-0.066,0.161c0,0.059,0.025,0.118,0.066,0.161
				c0.043,0.041,0.102,0.066,0.161,0.066c0.059,0,0.118-0.025,0.161-0.066c0.041-0.043,0.066-0.102,0.066-0.161
				c0-0.059-0.025-0.118-0.066-0.161C14.154,16.814,14.004,16.814,13.918,16.898L13.918,16.898z M13.918,16.898"/>
			<path fill="#FFFFFF" d="M12.263,14.336c0,0.125,0.102,0.227,0.227,0.227h0.908c0.125,0,0.227-0.102,0.227-0.227v-1.362
				c0-0.125-0.102-0.227-0.227-0.227H12.49c-0.125,0-0.227,0.102-0.227,0.227V14.336z M12.717,13.201h0.454v0.908h-0.454V13.201z
				 M12.717,13.201"/>
			<path fill="#FFFFFF" d="M11.809,15.698c0,0.125,0.102,0.227,0.227,0.227h0.681v2.042c0,0.125,0.102,0.227,0.227,0.227
				c0.125,0,0.227-0.102,0.227-0.227v-2.042h1.815v2.042c0,0.125,0.102,0.227,0.227,0.227c0.125,0,0.227-0.102,0.227-0.227v-2.042
				h0.681c0.125,0,0.227-0.102,0.227-0.227c0-0.125-0.102-0.227-0.227-0.227h-4.085C11.911,15.471,11.809,15.572,11.809,15.698
				L11.809,15.698z M11.809,15.698"/>
			<path fill="#FFFFFF" d="M18.164,14.336c0,0.125,0.102,0.227,0.227,0.227h0.908c0.125,0,0.227-0.102,0.227-0.227v-1.362
				c0-0.125-0.102-0.227-0.227-0.227h-0.908c-0.125,0-0.227,0.102-0.227,0.227V14.336z M18.617,13.201h0.454v0.908h-0.454V13.201z
				 M18.617,13.201"/>
			<path fill="#FFFFFF" d="M17.029,5.939h-5.9c-0.125,0-0.227,0.102-0.227,0.227v11.801c0,0.125,0.102,0.227,0.227,0.227
				c0.125,0,0.227-0.102,0.227-0.227V6.393h5.447v11.574c0,0.125,0.102,0.227,0.227,0.227c0.125,0,0.227-0.102,0.227-0.227V6.166
				C17.256,6.041,17.154,5.939,17.029,5.939L17.029,5.939z M17.029,5.939"/>
		</g>
	</g>
</g>
</svg>
