<?xml version="1.0" encoding="utf-8"?>
<!-- Generator: Adobe Illustrator 17.0.0, SVG Export Plug-In . SVG Version: 6.00 Build 0)  -->
<!DOCTYPE svg PUBLIC "-//W3C//DTD SVG 1.1//EN" "http://www.w3.org/Graphics/SVG/1.1/DTD/svg11.dtd">
<svg version="1.1" id="Layer_1" xmlns="http://www.w3.org/2000/svg" xmlns:xlink="http://www.w3.org/1999/xlink" x="0px" y="0px"
	 width="27px" height="27px" viewBox="0 0 27 27" enable-background="new 0 0 27 27" xml:space="preserve">
<g>
	<g>
		<g>
			<g>
				<circle fill="none" stroke="#FFFFFF" stroke-width="0.5" stroke-miterlimit="10" cx="13.5" cy="13.5" r="12.8"/>
			</g>
		</g>
	</g>
	<g>
		<g>
			<path fill="#FFFFFF" d="M16.522,9.497c0.071,0,0.141-0.029,0.191-0.079c0.05-0.05,0.079-0.12,0.079-0.191
				s-0.029-0.141-0.079-0.191c-0.05-0.05-0.12-0.079-0.191-0.079c-0.071,0-0.141,0.029-0.191,0.079s-0.079,0.12-0.079,0.191
				c0,0.071,0.029,0.141,0.079,0.191S16.451,9.497,16.522,9.497z"/>
			<path fill="#FFFFFF" d="M10.64,12.816H8.481c-0.149,0-0.27,0.121-0.27,0.27v2.159c0,0.149,0.121,0.27,0.27,0.27h2.159
				c0.149,0,0.27-0.121,0.27-0.27v-2.159C10.91,12.936,10.789,12.816,10.64,12.816z M10.37,14.974H8.751v-1.619h1.619V14.974z"/>
			<path fill="#FFFFFF" d="M20.241,10.866c-0.101-0.042-0.217-0.019-0.294,0.058l-2.75,2.75c0,0,0,0,0,0c0,0,0,0,0,0l-3.205,3.205
				c0,0,0,0,0,0c0,0,0,0,0,0l-1.681,1.681c-0.077,0.077-0.1,0.193-0.059,0.294c0.042,0.101,0.14,0.167,0.249,0.167h7.636
				c0.149,0,0.27-0.121,0.27-0.27v-7.636C20.408,11.007,20.342,10.908,20.241,10.866z M19.868,18.482h-6.715l1.03-1.03l0.258,0.258
				c0.053,0.053,0.122,0.079,0.191,0.079c0.069,0,0.138-0.026,0.191-0.079c0.105-0.105,0.105-0.276,0-0.382l-0.258-0.258
				l0.687-0.687l0.258,0.258c0.053,0.053,0.122,0.079,0.191,0.079s0.138-0.026,0.191-0.079c0.105-0.105,0.105-0.276,0-0.382
				l-0.258-0.258l0.687-0.687l0.258,0.258c0.053,0.053,0.122,0.079,0.191,0.079s0.138-0.026,0.191-0.079
				c0.105-0.105,0.105-0.276,0-0.382l-0.258-0.258l0.687-0.687l0.258,0.258c0.053,0.053,0.122,0.079,0.191,0.079
				s0.138-0.026,0.191-0.079c0.105-0.105,0.105-0.276,0-0.382l-0.258-0.258l0.687-0.687l0.258,0.258
				c0.053,0.053,0.122,0.079,0.191,0.079s0.138-0.026,0.191-0.079c0.105-0.105,0.105-0.276,0-0.382l-0.258-0.258l1.03-1.03V18.482z"
				/>
			<path fill="#FFFFFF" d="M18.892,14.124c-0.101-0.042-0.217-0.019-0.294,0.058l-3.03,3.03c-0.077,0.077-0.1,0.193-0.059,0.294
				c0.042,0.101,0.14,0.167,0.249,0.167h3.03c0.149,0,0.27-0.121,0.27-0.27v-3.03C19.059,14.264,18.993,14.165,18.892,14.124z
				 M18.519,17.133H16.41l2.109-2.109V17.133z"/>
			<path fill="#FFFFFF" d="M11.971,17.445c0.281,0,0.561-0.107,0.775-0.32l2.276-2.276c0.105-0.105,0.105-0.276,0-0.382
				c-0.105-0.105-0.276-0.105-0.382,0l-1.724,1.724l-0.786-0.786l4.93-4.93l0.786,0.786l-1.884,1.884
				c-0.105,0.105-0.105,0.276,0,0.382c0.105,0.105,0.276,0.105,0.382,0l2.069-2.069c0.028-0.028,0.049-0.061,0.063-0.098
				l0.675-1.842c0.036-0.099,0.012-0.209-0.063-0.284c-0.074-0.074-0.185-0.099-0.284-0.063l-1.842,0.675
				c-0.037,0.013-0.07,0.035-0.098,0.063l-0.518,0.518l-3.383-3.383c-0.051-0.051-0.119-0.079-0.191-0.079s-0.14,0.028-0.191,0.079
				l-4.072,4.072H7.513l5.258-5.258l2.885,2.885c0.105,0.105,0.276,0.105,0.382,0c0.105-0.105,0.105-0.276,0-0.382l-3.076-3.076
				c-0.105-0.105-0.276-0.105-0.382,0l-5.909,5.909c-0.077,0.077-0.1,0.193-0.059,0.294c0.042,0.101,0.14,0.167,0.249,0.167h0.27
				v7.097c0,0.149,0.121,0.27,0.27,0.27h4.29c0.149,0,0.27-0.121,0.27-0.27s-0.121-0.27-0.27-0.27h-4.02v-6.827H8.62
				c0.072,0,0.14-0.028,0.191-0.079l3.96-3.96l3.192,3.192l-4.002,4.002v-2.426h1.889c0.149,0,0.27-0.121,0.27-0.27
				c0-0.149-0.121-0.27-0.27-0.27h-2.159c-0.149,0-0.27,0.121-0.27,0.27v3.13c0,0.031,0.006,0.062,0.016,0.09l-0.242,0.242
				c-0.427,0.427-0.427,1.122,0,1.549C11.41,17.339,11.69,17.445,11.971,17.445z M18.117,10.769l-0.565-0.565l0.891-0.326
				L18.117,10.769z M11.578,15.957l0.17-0.17l0.786,0.786l-0.17,0.17c-0.105,0.105-0.245,0.163-0.393,0.163
				s-0.288-0.058-0.393-0.163c-0.105-0.105-0.163-0.245-0.163-0.393C11.415,16.202,11.473,16.062,11.578,15.957z"/>
			<path fill="#FFFFFF" d="M15.296,13.811c-0.05,0.05-0.079,0.12-0.079,0.191c0,0.071,0.029,0.141,0.079,0.191
				c0.05,0.05,0.12,0.079,0.191,0.079c0.071,0,0.141-0.029,0.191-0.079c0.05-0.05,0.079-0.12,0.079-0.191s-0.029-0.14-0.079-0.191
				c-0.05-0.05-0.12-0.079-0.191-0.079S15.346,13.761,15.296,13.811z"/>
			<path fill="#FFFFFF" d="M13.797,10.306c0-0.565-0.46-1.025-1.025-1.025s-1.025,0.46-1.025,1.025s0.46,1.025,1.025,1.025
				S13.797,10.872,13.797,10.306z M12.286,10.306c0-0.268,0.218-0.486,0.486-0.486s0.486,0.218,0.486,0.486
				s-0.218,0.486-0.486,0.486S12.286,10.574,12.286,10.306z"/>
		</g>
	</g>
</g>
</svg>
