<?xml version="1.0" encoding="utf-8"?>
<!-- Generator: Adobe Illustrator 17.0.0, SVG Export Plug-In . SVG Version: 6.00 Build 0)  -->
<!DOCTYPE svg PUBLIC "-//W3C//DTD SVG 1.1//EN" "http://www.w3.org/Graphics/SVG/1.1/DTD/svg11.dtd">
<svg version="1.1" id="Layer_1" xmlns="http://www.w3.org/2000/svg" xmlns:xlink="http://www.w3.org/1999/xlink" x="0px" y="0px"
	 width="27px" height="27px" viewBox="0 0 27 27" enable-background="new 0 0 27 27" xml:space="preserve">
<g>
	<g>
		<g>
			<g>
				<circle fill="none" stroke="#FFFFFF" stroke-width="0.5" stroke-miterlimit="10" cx="13.5" cy="13.5" r="12.8"/>
			</g>
		</g>
	</g>
	<g>
		<g>
			<path fill="#FFFFFF" d="M19.494,14.44c-0.079-0.032-0.17-0.012-0.229,0.05l-0.89,0.935V9.87h0.001l0.849-0.917
				c0.078-0.084,0.073-0.216-0.012-0.294l0,0l-0.306-0.284l0.425-0.458c0.078-0.084,0.073-0.216-0.012-0.294l-0.917-0.849
				c-0.084-0.078-0.216-0.073-0.294,0.011l-1.481,1.599H9.416C9.416,7.808,8.95,7.342,8.375,7.342H8.166
				C7.591,7.342,7.125,7.808,7.125,8.383v8.958c0,0.115,0.093,0.208,0.208,0.208h3.154l-0.438,0.525
				c-0.074,0.089-0.061,0.22,0.027,0.293l0.961,0.8c0.088,0.074,0.22,0.062,0.293-0.027l0,0l1.066-1.281
				c0.074-0.089,0.121-0.196,0.137-0.311h3.817l-1.252,1.315c-0.079,0.083-0.076,0.215,0.007,0.295
				c0.039,0.037,0.09,0.057,0.144,0.057h4.167c0.115,0,0.208-0.093,0.208-0.208v-4.375C19.625,14.548,19.573,14.471,19.494,14.44
				L19.494,14.44z M18.777,8.821l-0.403,0.436V8.95l0.25-0.271L18.777,8.821z M17.958,8.784v0.003l-1.762,1.904l-0.612-0.566
				l2.122-2.294l0.612,0.566L17.96,8.784H17.958z M15.796,10.888l-0.479,0.14l0.102-0.489L15.796,10.888z M18.273,7.219l0.612,0.566
				l-0.283,0.306L17.99,7.525L18.273,7.219z M8.166,7.758h0.208C8.72,7.758,9,8.038,9,8.383v7.922
				c-0.179-0.138-0.399-0.213-0.625-0.214H8.166c-0.226,0.001-0.446,0.076-0.625,0.214V8.383C7.541,8.038,7.821,7.758,8.166,7.758
				L8.166,7.758z M8.166,16.508h0.208C8.72,16.508,9,16.788,9,17.133H7.541C7.541,16.788,7.821,16.508,8.166,16.508L8.166,16.508z
				 M12.077,17.594l-0.133,0.16l-0.64-0.533l0.133-0.16c0.074-0.088,0.205-0.1,0.293-0.027c0,0,0,0,0,0l0.32,0.266
				C12.138,17.373,12.15,17.505,12.077,17.594L12.077,17.594L12.077,17.594z M11.143,18.715l-0.64-0.533l0.533-0.641l0.64,0.533
				L11.143,18.715z M12.446,17.133c-0.035-0.058-0.078-0.109-0.13-0.153l-0.32-0.266c-0.265-0.221-0.659-0.185-0.88,0.08
				l-0.283,0.339H9.416V8.8h6.826l-1.106,1.195c-0.016,0.018-0.028,0.038-0.037,0.061c-0.002,0.006-0.004,0.012-0.006,0.018
				c-0.002,0.006-0.005,0.012-0.007,0.019l-0.249,1.189c-0.023,0.113,0.049,0.223,0.161,0.246c0.033,0.007,0.068,0.006,0.101-0.004
				l1.167-0.34c0.005-0.002,0.01-0.005,0.015-0.007c0.005-0.002,0.011-0.005,0.016-0.007c0.023-0.011,0.045-0.026,0.062-0.044
				L17.958,9.4v6.462l-1.21,1.271H12.446z M19.208,18.8h-3.472l3.472-3.646V18.8z M19.208,18.8"/>
			<path fill="#FFFFFF" d="M16.932,18.255c0.032,0.078,0.108,0.129,0.193,0.129h1.458c0.115,0,0.208-0.093,0.208-0.208v-1.458
				c0-0.115-0.093-0.208-0.208-0.208c-0.055,0-0.108,0.022-0.147,0.061l-1.458,1.458C16.918,18.087,16.9,18.177,16.932,18.255
				L16.932,18.255z M18.375,17.219v0.747h-0.747L18.375,17.219z M18.375,17.219"/>
			<path fill="#FFFFFF" d="M16.291,14.633h-1.458v-2.292c0-0.055-0.022-0.108-0.061-0.148l-1.25-1.25
				c-0.081-0.081-0.213-0.081-0.295,0l-1.25,1.25c-0.039,0.039-0.061,0.092-0.061,0.148v2.292h-1.458
				c-0.115,0-0.208,0.093-0.208,0.208c0,0.115,0.093,0.208,0.208,0.208h5.833c0.115,0,0.208-0.093,0.208-0.208
				C16.5,14.726,16.406,14.633,16.291,14.633L16.291,14.633z M13.375,11.386l0.747,0.747h-1.494L13.375,11.386z M12.333,12.55h2.083
				v2.083h-2.083V12.55z M12.333,12.55"/>
			<rect x="13.166" y="10.05" fill="#FFFFFF" width="0.417" height="0.417"/>
			<rect x="13.166" y="15.466" fill="#FFFFFF" width="0.417" height="0.417"/>
		</g>
	</g>
</g>
</svg>
