<?xml version="1.0" encoding="utf-8"?>
<!-- Generator: Adobe Illustrator 17.0.0, SVG Export Plug-In . SVG Version: 6.00 Build 0)  -->
<!DOCTYPE svg PUBLIC "-//W3C//DTD SVG 1.1//EN" "http://www.w3.org/Graphics/SVG/1.1/DTD/svg11.dtd">
<svg version="1.1" id="Layer_1" xmlns="http://www.w3.org/2000/svg" xmlns:xlink="http://www.w3.org/1999/xlink" x="0px" y="0px"
	 width="27px" height="27px" viewBox="0 0 27 27" enable-background="new 0 0 27 27" xml:space="preserve">
<g>
	<g>
		<g>
			<g>
				<circle fill="none" stroke="#FFFFFF" stroke-width="0.5" stroke-miterlimit="10" cx="13.5" cy="13.5" r="12.8"/>
			</g>
		</g>
	</g>
	<path fill="#FFFFFF" d="M21.339,14.348c-0.305-0.448-0.918-0.566-1.367-0.264l-2.044,1.368l-0.006-4.258l0.71,0.665
		c0.151,0.141,0.348,0.219,0.555,0.219c0,0,0.001,0,0.001,0c0.223,0,0.439-0.094,0.591-0.257c0.148-0.158,0.226-0.365,0.219-0.581
		s-0.098-0.418-0.256-0.566l-1.346-1.261c-0.092-0.086-0.237-0.082-0.323,0.011c-0.086,0.092-0.082,0.237,0.011,0.323l1.346,1.261
		c0.069,0.065,0.109,0.152,0.112,0.247c0.003,0.095-0.031,0.185-0.096,0.254c-0.068,0.072-0.159,0.112-0.258,0.112c0,0,0,0-0.001,0
		c-0.09,0-0.176-0.034-0.242-0.096l0,0c0,0,0,0,0,0l-5.346-5.008c-0.088-0.082-0.225-0.082-0.313,0L7.952,11.54c0,0,0,0,0,0l0,0
		c-0.069,0.065-0.159,0.099-0.254,0.096c-0.095-0.003-0.182-0.042-0.247-0.111c-0.065-0.069-0.099-0.159-0.096-0.253
		c0.003-0.095,0.042-0.182,0.111-0.247l5.731-5.399c0.136-0.128,0.349-0.128,0.485-0.001l3.353,3.141
		c0.092,0.086,0.237,0.082,0.323-0.011c0.086-0.092,0.082-0.237-0.011-0.323l-3.353-3.141c-0.312-0.292-0.8-0.292-1.111,0.002
		l-1.835,1.728l-0.001-0.308c0-0.097-0.038-0.188-0.107-0.257c-0.069-0.068-0.16-0.106-0.257-0.106c0,0,0,0-0.001,0L9.372,6.351
		c-0.097,0-0.188,0.038-0.257,0.107c-0.069,0.069-0.106,0.16-0.106,0.257L9.013,8.94l-1.86,1.752
		c-0.158,0.149-0.248,0.35-0.255,0.567c-0.006,0.217,0.072,0.423,0.22,0.581c0.149,0.158,0.35,0.248,0.567,0.255
		c0.008,0,0.017,0,0.025,0c0.208,0,0.404-0.078,0.556-0.221l0.709-0.668l0.003,2.011c-0.229-0.033-0.461-0.051-0.694-0.051H7.892
		v-0.137c0-0.46-0.374-0.835-0.835-0.835H6.326c-0.46,0-0.835,0.374-0.835,0.835v3.583c0,0.126,0.102,0.229,0.229,0.229
		s0.229-0.102,0.229-0.229v-3.583c0-0.208,0.169-0.377,0.377-0.377h0.732c0.208,0,0.377,0.169,0.377,0.377v0.366v4.686v0.362
		c0,0.208-0.169,0.377-0.377,0.377H6.326c-0.208,0-0.377-0.169-0.377-0.377v-0.4c0-0.126-0.102-0.229-0.229-0.229
		s-0.229,0.102-0.229,0.229v0.4c0,0.46,0.374,0.835,0.835,0.835h0.732c0.46,0,0.835-0.374,0.835-0.835v-0.031l3.348,1.268
		c0.006,0.002,0.012,0.004,0.019,0.006c0.146,0.041,0.291,0.062,0.435,0.062c0.078,0,0.155-0.006,0.231-0.018l4.921-0.709
		c0.001,0,0.002,0,0.003-0.001c0.418-0.067,0.813-0.244,1.141-0.511c0.003-0.002,0.006-0.005,0.008-0.007l3.179-2.859
		C21.548,15.313,21.617,14.757,21.339,14.348z M10.592,6.807l0.001,0.644L9.469,8.51L9.466,6.808L10.592,6.807z M9.435,13.305
		l-0.004-2.53l4.011-3.778l4.021,3.767l0.007,4.993l-0.647,0.433l-0.685-0.038l-0.018-0.182c-0.064-0.641-0.537-1.157-1.163-1.28
		l-0.004-2.97c0-0.228-0.186-0.413-0.414-0.413c0,0,0,0-0.001,0l-2.179,0.003c-0.111,0-0.214,0.043-0.292,0.122
		c-0.078,0.078-0.121,0.182-0.121,0.293l0.004,2.59c-0.432-0.099-0.844-0.262-1.229-0.487c-0.048-0.028-0.097-0.055-0.146-0.082
		c-0.019-0.01-0.038-0.02-0.058-0.03c-0.03-0.016-0.06-0.031-0.09-0.046c-0.024-0.012-0.048-0.023-0.072-0.035
		c-0.026-0.012-0.051-0.024-0.077-0.036c-0.026-0.012-0.053-0.023-0.079-0.035c-0.024-0.01-0.048-0.021-0.073-0.031
		c-0.027-0.011-0.055-0.022-0.082-0.033c-0.024-0.01-0.049-0.019-0.073-0.028c-0.027-0.01-0.054-0.02-0.082-0.03
		c-0.026-0.009-0.051-0.018-0.077-0.026c-0.026-0.009-0.052-0.017-0.079-0.026c-0.028-0.009-0.056-0.017-0.084-0.026
		c-0.024-0.007-0.048-0.014-0.073-0.021c-0.032-0.009-0.064-0.017-0.096-0.025C9.465,13.313,9.45,13.309,9.435,13.305z
		 M12.403,11.766l2.092-0.003l0.004,2.869l-1.912-0.22l-0.18-0.021L12.403,11.766z M20.873,15.301l-3.176,2.856
		c-0.265,0.215-0.582,0.357-0.919,0.411l-4.918,0.709c-0.001,0-0.002,0-0.003,0l-0.003,0.001c-0.149,0.024-0.304,0.014-0.461-0.029
		l-3.501-1.326v-4.3h0.391c0.333,0,0.664,0.038,0.986,0.113c0.012,0.003,0.024,0.006,0.036,0.009c0.04,0.01,0.079,0.019,0.118,0.03
		c0.003,0.001,0.007,0.002,0.01,0.003c0.039,0.011,0.079,0.022,0.118,0.034c0.007,0.002,0.014,0.004,0.021,0.006
		c0.042,0.013,0.083,0.026,0.124,0.04c0.004,0.001,0.008,0.003,0.013,0.004c0.086,0.03,0.171,0.062,0.255,0.097
		c0.005,0.002,0.009,0.004,0.014,0.006c0.042,0.018,0.083,0.036,0.125,0.055c0.001,0.001,0.002,0.001,0.003,0.002
		c0.04,0.018,0.08,0.037,0.119,0.057c0.005,0.002,0.009,0.005,0.014,0.007c0.038,0.019,0.077,0.039,0.115,0.06
		c0.007,0.004,0.014,0.008,0.021,0.012c0.038,0.021,0.076,0.042,0.114,0.064c0.544,0.318,1.136,0.524,1.76,0.613
		c0.002,0,0.004,0.001,0.006,0.001l2.562,0.295c0.014,0.002,0.028,0.004,0.042,0.007c0.377,0.071,0.675,0.349,0.774,0.712
		c0.015,0.054,0.025,0.109,0.031,0.166l0.01,0.102l-4.801-0.421c-0.126-0.011-0.237,0.082-0.248,0.208
		c-0.011,0.126,0.082,0.237,0.208,0.248l5.076,0.445c0.001,0,0.002,0,0.004,0c0.001,0,0.002,0,0.004,0l0.957,0.054
		c0.004,0,0.009,0,0.013,0c0.005,0,0.009-0.001,0.014-0.001c0.005,0,0.01-0.001,0.015-0.001c0.007-0.001,0.013-0.002,0.02-0.004
		c0.005-0.001,0.01-0.002,0.014-0.003c0.007-0.002,0.014-0.005,0.021-0.008c0.004-0.002,0.008-0.003,0.012-0.004
		c0.011-0.005,0.021-0.011,0.031-0.017l0.813-0.544c0,0,0,0,0,0l2.4-1.606c0.241-0.162,0.571-0.099,0.735,0.142
		C21.11,14.825,21.073,15.124,20.873,15.301z"/>
</g>
</svg>
