<?xml version="1.0" encoding="utf-8"?>
<!-- Generator: Adobe Illustrator 17.0.0, SVG Export Plug-In . SVG Version: 6.00 Build 0)  -->
<!DOCTYPE svg PUBLIC "-//W3C//DTD SVG 1.1//EN" "http://www.w3.org/Graphics/SVG/1.1/DTD/svg11.dtd">
<svg version="1.1" id="Layer_1" xmlns="http://www.w3.org/2000/svg" xmlns:xlink="http://www.w3.org/1999/xlink" x="0px" y="0px"
	 width="27px" height="27px" viewBox="0 0 27 27" enable-background="new 0 0 27 27" xml:space="preserve">
<g>
	<g>
		<path fill="none" stroke="#FFFFFF" stroke-width="0.75" stroke-miterlimit="10" d="M13.5,6.87c-3.004,0-5.439,2.463-5.439,5.501
			c0,1.386,0.508,2.652,1.345,3.62l-0.002,0.002l0.026,0.027c0.145,0.165,0.298,0.32,0.461,0.466l3.604,3.645l3.563-3.603
			c1.15-1.009,1.879-2.496,1.879-4.157C18.939,9.333,16.504,6.87,13.5,6.87z M13.5,14.737c-1.292,0-2.34-1.059-2.34-2.366
			c0-1.307,1.047-2.366,2.34-2.366c1.292,0,2.34,1.059,2.34,2.366C15.84,13.677,14.792,14.737,13.5,14.737z"/>
		<g>
			<ellipse fill="none" stroke="#FFFFFF" stroke-width="0.5" stroke-miterlimit="10" cx="13.5" cy="13.5" rx="12.656" ry="12.8"/>
		</g>
	</g>
</g>
</svg>
