<?xml version="1.0" encoding="utf-8"?>
<!-- Generator: Adobe Illustrator 22.1.0, SVG Export Plug-In . SVG Version: 6.00 Build 0)  -->
<svg version="1.1" id="Layer_1" xmlns="http://www.w3.org/2000/svg" xmlns:xlink="http://www.w3.org/1999/xlink" x="0px" y="0px"
	 viewBox="0 0 68 70.6" style="enable-background:new 0 0 68 70.6;" xml:space="preserve">
<style type="text/css">
	.st0{fill:#FFFFFF;}
	.st1{fill:url(#SVGID_1_);}
	.st2{fill:url(#SVGID_2_);}
</style>
<g>
	<g>
		
			<image style="overflow:visible;opacity:0.3;" width="66" height="67" xlink:href="7C0B6148.html"  transform="matrix(1 0 0 1 1 4.6)">
		</image>
		<g>
			<g>
				<path class="st0" d="M49,60.3H19c-5.5,0-10-4.5-10-10v-30c0-5.5,4.5-10,10-10h30c5.5,0,10,4.5,10,10v30
					C59,55.8,54.5,60.3,49,60.3z"/>
				<linearGradient id="SVGID_1_" gradientUnits="userSpaceOnUse" x1="7" y1="35.3" x2="61" y2="35.3">
					<stop  offset="0" style="stop-color:#85C44C"/>
					<stop  offset="1" style="stop-color:#1F805C"/>
				</linearGradient>
				<path class="st1" d="M49,10.3c5.5,0,10,4.5,10,10v30c0,5.5-4.5,10-10,10H19c-5.5,0-10-4.5-10-10v-30c0-5.5,4.5-10,10-10H49
					 M49,8.3H19c-6.6,0-12,5.4-12,12v30c0,6.6,5.4,12,12,12h30c6.6,0,12-5.4,12-12v-30C61,13.7,55.6,8.3,49,8.3L49,8.3z"/>
			</g>
		</g>
	</g>
</g>
<linearGradient id="SVGID_2_" gradientUnits="userSpaceOnUse" x1="26.5313" y1="35.3" x2="41.4688" y2="35.3">
	<stop  offset="0" style="stop-color:#85C44C"/>
	<stop  offset="1" style="stop-color:#1F805C"/>
</linearGradient>
<path class="st2" d="M30.9,49.8v-13h-4.3v-5.1h4.3v-4.1c0-4.4,2.7-6.8,6.6-6.8c1.9,0,3.5,0.1,4,0.2v4.6h-2.7c-2.1,0-2.6,1-2.6,2.5
	v3.5H41l-0.7,5.1h-4.2v13"/>
</svg>
